<svg xmlns="http://www.w3.org/2000/svg" viewBox="0 0 512 512">
  <rect width="512" height="512" rx="112" fill="#05080b"/>
  <circle cx="256" cy="256" r="168" fill="#67e8f9"/>
  <path fill="#05080b" d="M185 184c0-48 29-92 68-110 14 36 15 77 2 110h1c31-40 78-64 130-66 4 48-16 94-54 123 34 17 57 52 57 93 0 66-57 112-133 112s-133-46-133-112c0-41 23-76 57-93-10-17-15-36-15-57h20Zm33 145a28 28 0 1 0 0-56 28 28 0 0 0 0 56Zm76 0a28 28 0 1 0 0-56 28 28 0 0 0 0 56Zm-81 54c27 20 61 20 88 0-11 34-77 34-88 0Z"/>
</svg>
